<?xml version="1.0" encoding="iso-8859-1"?>
<!-- Uploaded to: SVG Repo, www.svgrepo.com, Generator: SVG Repo Mixer Tools -->
<svg fill="#000000" height="800px" width="800px" version="1.1" id="Layer_1" xmlns="http://www.w3.org/2000/svg" xmlns:xlink="http://www.w3.org/1999/xlink" 
	 viewBox="0 0 330 330" xml:space="preserve">
<path id="XMLID_23_" d="M315,0H15C6.716,0,0,6.716,0,15v300c0,8.284,6.716,15,15,15h300c8.284,0,15-6.716,15-15V15
	C330,6.716,323.284,0,315,0z M255,180h-75v75c0,8.284-6.716,15-15,15s-15-6.716-15-15v-75H75c-8.284,0-15-6.716-15-15
	s6.716-15,15-15h75V75c0-8.284,6.716-15,15-15s15,6.716,15,15v75h75c8.284,0,15,6.716,15,15S263.284,180,255,180z"/>
</svg>